<svg xmlns:svg="http://www.w3.org/2000/svg" xmlns="http://www.w3.org/2000/svg" width="300" height="300" version="1.1"><style>.s0{fill:#fff;}</style><g transform="translate(0,-752.36218)"><g transform="translate(-34.145349,126.67262)" fill="#89c322"><path transform="translate(-110.73065,-40.420969)" d="m337.41 835.06c-17.37 0-31.47 17.92-31.47 40.03 3.63 42.83 26.77 40.93 62.22 46.91 14.12 4.1 28.44 13.07 36.38 7.56 12.62-8.75 26.77-54.54 25.25-63.12-1.52-8.59-9.1-16.66-17.69-16.16-8.59 0.51-21.72 17.15-28.28 15.13-3.18-0.98-10.84-4.18-17.91-7.25-5.01-13.65-15.88-23.09-28.5-23.09z" fill="#8a0"/><path transform="translate(-110.73065,-40.420969)" d="m264.66 838.72c-13.5 0-24.92 11.97-28.84 28.53-6.77 5.89-14.57 12.69-16.72 14.84-3.54 3.54-6.06 7.06-12.12 4.03-6.06-3.03-22.71-0.49-29.78 1.53-7.07 2.02-14.73 21.69-11.12 30.81 7.58 19.19 34.52 32.06 46.97 36.84 19.7 7.58 27.93 2.42 33.84-2.5 9.09-7.58 20.7-27.79 22.22-30.31 1.52-2.53 18.19-5.56 18.19-5.56 6.06-2.2 6.57-20.59 7.69-37.06 0-22.73-13.58-41.16-30.31-41.16z" fill="#8bcfdf"/><path d="m157.42 741.16c-3.03 1.01-33.84 0-41.42 37.38-7.58 37.38 37.45 102.18 66.67 103.04 52.02 1.52 70.21-48.49 70.21-86.87 0-38.39-9.6-54.04-37.88-56.06-28.28-2.02-56.57 2.53-57.58 2.53z" fill="#fff"/><path d="m123.27 828.49c-13.39 0.68-20.11-1.07-26.41-6.88-10.66-10.92-10.76-29.07-4.53-42.38 4.07-8.27 14.78-19.43 25.8-26.9 7.15-4.85 16.03-9.53 19.89-8.26 6.75 2.23-2.11 6.63-3.99 15.34-2.86 13.27-0.81 16.85 12.56 21.87 11.21 4.21 14.72 6.48 17.62 11.42 3.86 6.59 3.74 14.38-0.32 20.11-3.72 5.25-11.34 9.64-21.97 12.67l-18.66 3z" fill="#cf0"/><path d="m244.34 821.39c-8.45-2.28-14.91-8.98-16.78-17.39-1.24-5.6-0.07-10.47 4.89-20.34 2.2-4.39 4.91-10.25 6-13.03l1.99-5.06-4.13-7.66-6.15-10.69c0 0-2.31-3.16-2.51-5.32-0.38-4.11 2.24-5.91 8.06-4.08 1.05 0.33 10.02 4.56 16.82 9.1 16.59 11.08 31.05 25.36 36.2 35.72 5.7 11.48 4.98 20.13-2.37 28.5-7.98 9.09-28.12 14-42.03 10.25z" fill="#a02c2c"/><path d="m213.15 661.91c-11.54-8.78-21.44-9.07-24.71-11.36-3.3-2.31-1.41-6.35 2.56-9.63 10.32-8.51 22.28-6.04 36.5 7.55 12.04 11.5 17.21 23.59 14.89 34.77-0.57 2.76-2.86 8.71-6.44 8.62-3.68-0.2-2.14-11.25-22.81-29.96z" fill="#fd5"/><path d="m153.88 645.7c12.91-2.84 48.07 1.37 62.63 14.65 15.68 14.3 25.12 30.27 25.76 60.1 0.49 23.1-6.71 32.12-38.89 37.38-35.31 5.77-81.06-1.35-93.44-25.25-18.96-40.47 13.06-79.27 43.94-86.87z" fill="#fff"/><path d="M102.64 734.42C87.08 728.78 80.62 707.45 87.62 684.77c5.89-19.1 15.73-28.16 30.7-28.25 7.76-0.05 10.44 1.09 12.67 5.4 2.19 4.23-5.62 13.91-7.73 21.1-2.57 8.74-4.54 17.67-5.99 26.67-1.33 8.24 1.48 23.13-2.46 24.92-3.12 1.42-7.91 1.34-12.16-0.2z" fill="#800080"/><path d="m194.42 742.64c-2.99-1.19-5.83-3.67-7.24-6.3-0.94-1.76-0.79-1.74 1.73 0.24 3.28 2.58 6.11 2.7 15.12 0.61 8.56-1.99 9.78-2.67 12.85-7.19 2.14-3.14 2.52-3.37 2.52-1.51 0 3.38-5.47 8.85-12.22 12.22-6.41 3.21-8.7 3.55-12.76 1.93zm-48.71-16.93c-7.85-2.41-12.31-11.87-10.9-23.14 1.68-13.41 10.76-18.65 26.7-15.38 6.04 1.24 7.86 2.08 10.03 4.63 3.15 3.7 5.06 9.95 5.16 16.88 0.06 4.28-0.37 5.52-2.86 8.11-6.49 6.78-20.56 11.23-28.14 8.9zm65.07-16.2c-6.4-4.3-7.62-6.78-6.93-14.18 1.06-11.36 5.3-15.93 14.78-15.95 3.56-0.01 5.33 0.56 7.17 2.28 3.87 3.64 4.84 7.22 4.45 16.49-0.33 7.78-0.6 8.73-3.29 11.54-4.14 4.32-9.56 4.25-16.18-0.18z" fill="#f95"/></g></g></svg>