<?xml version="1.0" encoding="UTF-8" standalone="no"?>
<!-- Created with Inkscape (http://www.inkscape.org/) -->

<svg
   xmlns:dc="http://purl.org/dc/elements/1.1/"
   xmlns:cc="http://creativecommons.org/ns#"
   xmlns:rdf="http://www.w3.org/1999/02/22-rdf-syntax-ns#"
   xmlns:svg="http://www.w3.org/2000/svg"
   xmlns="http://www.w3.org/2000/svg"
   xmlns:sodipodi="http://sodipodi.sourceforge.net/DTD/sodipodi-0.dtd"
   xmlns:inkscape="http://www.inkscape.org/namespaces/inkscape"
   width="300"
   height="300"
   id="svg2"
   version="1.1"
   inkscape:version="0.48.1 r9760"
   sodipodi:docname="panda.svg">
  <defs
     id="defs4">
    <inkscape:path-effect
       effect="spiro"
       id="path-effect5542"
       is_visible="true" />
    <inkscape:path-effect
       effect="spiro"
       id="path-effect5538"
       is_visible="true" />
    <inkscape:perspective
       sodipodi:type="inkscape:persp3d"
       inkscape:vp_x="0 : 526.18109 : 1"
       inkscape:vp_y="0 : 1000 : 0"
       inkscape:vp_z="744.09448 : 526.18109 : 1"
       inkscape:persp3d-origin="372.04724 : 350.78739 : 1"
       id="perspective10" />
    <inkscape:perspective
       id="perspective2824"
       inkscape:persp3d-origin="0.5 : 0.33333333 : 1"
       inkscape:vp_z="1 : 0.5 : 1"
       inkscape:vp_y="0 : 1000 : 0"
       inkscape:vp_x="0 : 0.5 : 1"
       sodipodi:type="inkscape:persp3d" />
    <inkscape:perspective
       id="perspective2848"
       inkscape:persp3d-origin="0.5 : 0.33333333 : 1"
       inkscape:vp_z="1 : 0.5 : 1"
       inkscape:vp_y="0 : 1000 : 0"
       inkscape:vp_x="0 : 0.5 : 1"
       sodipodi:type="inkscape:persp3d" />
    <inkscape:perspective
       id="perspective2870"
       inkscape:persp3d-origin="0.5 : 0.33333333 : 1"
       inkscape:vp_z="1 : 0.5 : 1"
       inkscape:vp_y="0 : 1000 : 0"
       inkscape:vp_x="0 : 0.5 : 1"
       sodipodi:type="inkscape:persp3d" />
    <inkscape:perspective
       id="perspective2892"
       inkscape:persp3d-origin="0.5 : 0.33333333 : 1"
       inkscape:vp_z="1 : 0.5 : 1"
       inkscape:vp_y="0 : 1000 : 0"
       inkscape:vp_x="0 : 0.5 : 1"
       sodipodi:type="inkscape:persp3d" />
    <inkscape:perspective
       id="perspective2914"
       inkscape:persp3d-origin="0.5 : 0.33333333 : 1"
       inkscape:vp_z="1 : 0.5 : 1"
       inkscape:vp_y="0 : 1000 : 0"
       inkscape:vp_x="0 : 0.5 : 1"
       sodipodi:type="inkscape:persp3d" />
    <inkscape:perspective
       id="perspective2936"
       inkscape:persp3d-origin="0.5 : 0.33333333 : 1"
       inkscape:vp_z="1 : 0.5 : 1"
       inkscape:vp_y="0 : 1000 : 0"
       inkscape:vp_x="0 : 0.5 : 1"
       sodipodi:type="inkscape:persp3d" />
    <inkscape:perspective
       id="perspective2968"
       inkscape:persp3d-origin="0.5 : 0.33333333 : 1"
       inkscape:vp_z="1 : 0.5 : 1"
       inkscape:vp_y="0 : 1000 : 0"
       inkscape:vp_x="0 : 0.5 : 1"
       sodipodi:type="inkscape:persp3d" />
    <inkscape:perspective
       id="perspective2990"
       inkscape:persp3d-origin="0.5 : 0.33333333 : 1"
       inkscape:vp_z="1 : 0.5 : 1"
       inkscape:vp_y="0 : 1000 : 0"
       inkscape:vp_x="0 : 0.5 : 1"
       sodipodi:type="inkscape:persp3d" />
    <inkscape:perspective
       id="perspective3806"
       inkscape:persp3d-origin="0.5 : 0.33333333 : 1"
       inkscape:vp_z="1 : 0.5 : 1"
       inkscape:vp_y="0 : 1000 : 0"
       inkscape:vp_x="0 : 0.5 : 1"
       sodipodi:type="inkscape:persp3d" />
    <inkscape:perspective
       id="perspective3849"
       inkscape:persp3d-origin="0.5 : 0.33333333 : 1"
       inkscape:vp_z="1 : 0.5 : 1"
       inkscape:vp_y="0 : 1000 : 0"
       inkscape:vp_x="0 : 0.5 : 1"
       sodipodi:type="inkscape:persp3d" />
  </defs>
  <sodipodi:namedview
     id="base"
     pagecolor="#ffffff"
     bordercolor="#666666"
     borderopacity="1.0"
     inkscape:pageopacity="0.0"
     inkscape:pageshadow="2"
     inkscape:zoom="0.49497475"
     inkscape:cx="161.95297"
     inkscape:cy="233.31099"
     inkscape:document-units="px"
     inkscape:current-layer="layer1"
     showgrid="false"
     inkscape:window-width="1366"
     inkscape:window-height="715"
     inkscape:window-x="0"
     inkscape:window-y="24"
     inkscape:window-maximized="1" />
  <metadata
     id="metadata7">
    <rdf:RDF>
      <cc:Work
         rdf:about="">
        <dc:format>image/svg+xml</dc:format>
        <dc:type
           rdf:resource="http://purl.org/dc/dcmitype/StillImage" />
        <dc:title />
      </cc:Work>
    </rdf:RDF>
  </metadata>
  <g
     inkscape:label="Layer 1"
     inkscape:groupmode="layer"
     id="layer1"
     transform="translate(0,-752.36218)">
    <g
       style="fill:#89c322;fill-opacity:1;stroke:none"
       transform="translate(-34.145349,126.67262)"
       id="g5564">
      <path
         sodipodi:nodetypes="cccsssscc"
         id="path5566"
         transform="translate(-110.73065,-40.420969)"
         d="m 337.40625,835.0625 c -17.36721,0 -31.46875,17.92196 -31.46875,40.03125 3.62589,42.83292 26.77074,40.92589 62.21875,46.90625 14.12388,4.10343 28.43605,13.0655 36.375,7.5625 12.62487,-8.75111 26.76522,-54.5387 25.25,-63.125 -1.51523,-8.5863 -9.10121,-16.66133 -17.6875,-16.15625 -8.5863,0.50507 -21.71525,17.1453 -28.28125,15.125 -3.17562,-0.97712 -10.83712,-4.18328 -17.90625,-7.25 -5.00904,-13.65051 -15.88376,-23.09375 -28.5,-23.09375 z"
         style="fill:#88aa00;fill-opacity:1;stroke:none"
         inkscape:connector-curvature="0" />
      <path
         sodipodi:nodetypes="ccsssssssccc"
         id="path5568"
         transform="translate(-110.73065,-40.420969)"
         d="m 264.65625,838.71875 c -13.49562,0 -24.92093,11.97112 -28.84375,28.53125 -6.77042,5.89225 -14.56972,12.69472 -16.71875,14.84375 -3.53552,3.53553 -6.06408,7.0617 -12.125,4.03125 -6.06091,-3.03046 -22.71018,-0.48906 -29.78125,1.53125 -7.07106,2.0203 -14.72573,21.69064 -11.125,30.8125 7.57614,19.19289 34.52315,32.05698 46.96875,36.84375 19.69796,7.57614 27.93375,2.425 33.84375,-2.5 9.09137,-7.57614 20.70352,-27.78712 22.21875,-30.3125 1.51523,-2.52538 18.1875,-5.5625 18.1875,-5.5625 6.05642,-2.19955 6.56696,-20.59379 7.6875,-37.0625 0,-22.7341 -13.57574,-41.15625 -30.3125,-41.15625 z"
         style="fill:#8bcfdf;fill-opacity:1;stroke:none"
         inkscape:connector-curvature="0" />
      <path
         style="fill:#ffffff;fill-opacity:1;stroke:none"
         d="m 157.41604,741.15711 c -3.03046,1.01015 -33.84011,0 -41.41626,37.37564 -7.57614,37.37565 37.45342,102.18459 66.67007,103.03556 52.02286,1.51524 70.20561,-48.48732 70.20561,-86.87312 0,-38.38579 -9.59645,-54.04316 -37.88072,-56.06346 -28.28428,-2.02031 -56.56855,2.52538 -57.5787,2.52538 z"
         id="path5570"
         sodipodi:nodetypes="cssssc"
         inkscape:connector-curvature="0" />
      <path
         style="fill:#ccff00;fill-opacity:1;stroke:none"
         d="m 123.26953,828.48609 c -13.38547,0.68316 -20.11126,-1.06777 -26.412367,-6.87593 -10.663478,-10.91859 -10.763865,-29.06879 -4.527836,-42.37693 4.073186,-8.26587 14.780643,-19.43119 25.801553,-26.90484 7.14838,-4.84756 16.02991,-9.5331 19.89263,-8.25828 6.74938,2.22749 -2.10899,6.62672 -3.98978,15.34403 -2.86353,13.27223 -0.80951,16.84719 12.56362,21.86658 11.21295,4.20861 14.72182,6.48388 17.61636,11.42304 3.86441,6.59411 3.74188,14.37648 -0.31658,20.10669 -3.71834,5.24998 -11.33564,9.64355 -21.9706,12.67237 l -18.657,3.00327 z"
         id="path5572"
         sodipodi:nodetypes="cccsssssscc"
         inkscape:connector-curvature="0" />
      <path
         style="fill:#a02c2c;fill-opacity:1;stroke:none"
         d="m 244.33592,821.38879 c -8.44532,-2.27738 -14.91159,-8.97631 -16.78123,-17.38503 -1.24478,-5.59841 -0.0735,-10.47267 4.88761,-20.33983 2.2049,-4.38534 4.90587,-10.24895 6.00216,-13.03024 l 1.99324,-5.05689 -4.13003,-7.66152 -6.15033,-10.69198 c 0,0 -2.31031,-3.16171 -2.51212,-5.32143 -0.38417,-4.11128 2.2381,-5.90525 8.06047,-4.08329 1.05263,0.32939 10.02119,4.55652 16.82354,9.1018 16.589,11.08465 31.05291,25.35592 36.1999,35.71774 5.70138,11.47792 4.98275,20.13182 -2.36688,28.50259 -7.9797,9.08837 -28.11711,13.99886 -42.02633,10.24808 z"
         id="path5574"
         sodipodi:nodetypes="cssccccsssssc"
         inkscape:connector-curvature="0" />
      <path
         sodipodi:nodetypes="csssscc"
         id="path5576"
         d="m 213.14832,661.9077 c -11.54032,-8.78357 -21.43615,-9.07082 -24.7059,-11.35572 -3.30219,-2.30757 -1.41382,-6.34883 2.56099,-9.62521 10.32357,-8.50956 22.27923,-6.0357 36.50241,7.55305 12.03581,11.49894 17.21323,23.58932 14.89125,34.77423 -0.57238,2.75716 -2.85779,8.70842 -6.44273,8.61594 -3.68204,-0.2046 -2.14283,-11.24896 -22.80602,-29.96229 z"
         style="fill:#ffdd55;fill-opacity:1;stroke:none"
         inkscape:connector-curvature="0" />
      <path
         style="fill:#ffffff;fill-opacity:1;stroke:none"
         d="m 153.8805,645.69769 c 12.91038,-2.84029 48.06892,1.37256 62.62947,14.64721 15.68068,14.29586 25.12089,30.2729 25.75887,60.10408 0.49393,23.09561 -6.70665,32.11899 -38.89086,37.37564 -35.31247,5.76759 -81.0555,-1.35303 -93.43912,-25.25381 -18.95932,-40.46578 13.06323,-79.26934 43.94164,-86.87312 z"
         id="path5578"
         sodipodi:nodetypes="cssscc"
         inkscape:connector-curvature="0" />
      <path
         sodipodi:nodetypes="csssaasc"
         id="path5580"
         d="M 102.636,734.41889 C 87.077117,728.77614 80.624037,707.4462 87.615587,684.77054 c 5.888546,-19.09831 15.733273,-28.1575 30.700913,-28.2512 7.763,-0.0486 10.4388,1.09259 12.66757,5.40256 2.18654,4.22831 -5.61947,13.91402 -7.73357,21.10056 -2.57132,8.74076 -4.54048,17.67393 -5.98903,26.66917 -1.32731,8.24232 1.48222,23.12757 -2.46118,24.92429 -3.12049,1.4218 -7.91479,1.34414 -12.16429,-0.19703 z"
         style="fill:#800080;fill-opacity:1;stroke:none"
         inkscape:connector-curvature="0" />
      <path
         style="fill:#ff9955;fill-opacity:1;stroke:none"
         d="m 194.41769,742.63772 c -2.98612,-1.19142 -5.83474,-3.66824 -7.24103,-6.29592 -0.94174,-1.75965 -0.78574,-1.73809 1.72748,0.23881 3.28482,2.58384 6.10861,2.69734 15.11897,0.6077 8.56449,-1.98624 9.77975,-2.66611 12.85494,-7.19165 2.13641,-3.14403 2.51908,-3.37338 2.51908,-1.50983 0,3.377 -5.46985,8.84591 -12.2222,12.2201 -6.41425,3.20524 -8.69708,3.55074 -12.75724,1.93079 z m -48.70533,-16.93024 c -7.849,-2.40809 -12.30545,-11.87278 -10.89723,-23.14376 1.67608,-13.41489 10.76184,-18.64784 26.69828,-15.3769 6.04097,1.2399 7.86452,2.08121 10.02758,4.62631 3.14827,3.7043 5.05718,9.9476 5.16179,16.88224 0.0645,4.27876 -0.37169,5.51789 -2.85521,8.11012 -6.49219,6.77638 -20.5578,11.22675 -28.13521,8.90199 z m 65.06831,-16.20372 c -6.40415,-4.29811 -7.61911,-6.78421 -6.92955,-14.17958 1.05913,-11.35892 5.29562,-15.93089 14.77686,-15.947 3.5622,-0.006 5.33328,0.55792 7.16959,2.28305 3.87228,3.63782 4.84108,7.22409 4.45386,16.48732 -0.32525,7.781 -0.59512,8.72726 -3.29139,11.54108 -4.13622,4.31654 -9.56471,4.25451 -16.17937,-0.18487 z"
         id="path5582"
         sodipodi:nodetypes="cssssssccsssssccsssssc"
         inkscape:connector-curvature="0" />
    </g>
  </g>
</svg>
